<?xml version="1.0" encoding="utf-8"?>
<!-- Generator: Adobe Illustrator 21.0.2, SVG Export Plug-In . SVG Version: 6.00 Build 0)  -->
<svg version="1.1" id="Layer_1" xmlns="http://www.w3.org/2000/svg" xmlns:xlink="http://www.w3.org/1999/xlink" x="0px" y="0px"
	 viewBox="0 0 194 39" style="enable-background:new 0 0 194 39;" xml:space="preserve">
<style type="text/css">
	.st0{fill:#FFFFFF;}
</style>
<g>
	<polygon class="st0" points="85.6,8.2 84.6,6.3 83.7,6.3 85.2,9 84.2,10.9 85,10.9 87.3,6.3 86.5,6.3 	"/>
	<path class="st0" d="M89.8,9c-0.5,0-0.8-0.3-0.8-0.9h2.3V7.9c0-1-0.6-1.7-1.5-1.7c-1,0-1.6,0.7-1.6,1.7c0,1,0.6,1.7,1.6,1.7
		c0.7,0,1.1-0.3,1.5-1l-0.6-0.4C90.4,8.9,90.2,9,89.8,9z M89.8,6.9c0.4,0,0.6,0.2,0.7,0.6h-1.5C89.2,7.1,89.4,6.9,89.8,6.9z"/>
	<path class="st0" d="M104.4,6.7c-0.3-0.3-0.6-0.5-1-0.5c-0.9,0-1.5,0.7-1.5,1.8c0,1,0.6,1.7,1.5,1.7c0.4,0,0.7-0.1,1-0.5v0.5
		c0,0.7-0.3,1-0.8,1c-0.3,0-0.6-0.1-0.7-0.4c-0.1-0.1-0.1-0.3-0.1-0.5H102c0,1,0.6,1.6,1.6,1.6c0.5,0,1-0.2,1.3-0.6
		c0.2-0.3,0.3-0.6,0.3-1.2V6.3h-0.7V6.7z M103.6,9c-0.5,0-0.9-0.4-0.9-1c0-0.6,0.3-1.1,0.9-1.1c0.5,0,0.9,0.4,0.9,1
		C104.4,8.6,104.1,9,103.6,9z"/>
	<path class="st0" d="M109.6,7.6h1.3c-0.1,0.7-0.8,1.3-1.5,1.3c-1,0-1.8-0.9-1.8-1.9c0-1.1,0.8-2,1.9-2c0.6,0,1.1,0.3,1.5,0.9
		l0.5-0.5c-0.6-0.7-1.3-1.1-2.1-1.1c-1.5,0-2.7,1.2-2.7,2.7c0,1.5,1.2,2.7,2.6,2.7c0.8,0,1.5-0.4,1.9-1c0.3-0.4,0.4-0.9,0.4-1.6V6.9
		h-2.1V7.6z"/>
	<path class="st0" d="M80.6,7.6h1.3c-0.1,0.7-0.7,1.3-1.5,1.3c-1,0-1.8-0.9-1.8-1.9c0-1.1,0.8-2,1.9-2c0.6,0,1.1,0.3,1.5,0.9
		l0.5-0.5c-0.6-0.7-1.3-1.1-2.1-1.1c-1.5,0-2.7,1.2-2.7,2.7c0,1.5,1.2,2.7,2.6,2.7c0.8,0,1.5-0.4,1.9-1c0.3-0.4,0.4-0.9,0.4-1.6V6.9
		h-2.1V7.6z"/>
	<path class="st0" d="M118.2,7c0,1.5,1.2,2.7,2.6,2.7c0.5,0,0.9-0.1,1.4-0.4V8.3c-0.5,0.4-0.9,0.6-1.3,0.6c-1.1,0-1.9-0.8-1.9-1.9
		c0-1.1,0.8-2,1.9-2c0.5,0,0.9,0.2,1.4,0.6V4.7c-0.5-0.3-0.8-0.4-1.4-0.4C119.4,4.3,118.2,5.5,118.2,7z"/>
	<rect x="145.4" y="4.1" class="st0" width="0.7" height="5.4"/>
	<rect x="128" y="4.1" class="st0" width="0.7" height="5.4"/>
	<polygon class="st0" points="178.3,5 177.6,5 177.6,6.3 177.2,6.3 177.2,7 177.6,7 177.6,9.6 178.3,9.6 178.3,7 178.9,7 178.9,6.3 
		178.3,6.3 	"/>
	<polygon class="st0" points="131.3,5 130.5,5 130.5,6.3 130.2,6.3 130.2,7 130.5,7 130.5,9.6 131.3,9.6 131.3,7 131.9,7 131.9,6.3 
		131.3,6.3 	"/>
	<path class="st0" d="M138.3,6.6V6.3h-0.7v3.3h0.7V7.9c0-0.6,0.2-0.9,0.6-0.9c0.1,0,0.2,0,0.4,0.2l0.3-0.7c-0.2-0.2-0.4-0.2-0.6-0.2
		C138.7,6.2,138.5,6.3,138.3,6.6z"/>
	<polygon class="st0" points="150.5,9.6 151.3,9.6 151.3,7.1 153,7.1 153,6.4 151.3,6.4 151.3,5.1 153.1,5.1 153.1,4.3 150.5,4.3 	
		"/>
	<path class="st0" d="M161,8.2c0,0.6-0.2,0.8-0.6,0.8s-0.6-0.3-0.6-0.8V6.3H159v1.9c0,0.5,0.1,0.8,0.3,1.1c0.3,0.3,0.6,0.4,1,0.4
		c0.4,0,0.8-0.1,1-0.4c0.2-0.3,0.3-0.5,0.3-1.1V6.3H161V8.2z"/>
	<path class="st0" d="M135.1,8.2c0,0.6-0.2,0.8-0.6,0.8c-0.4,0-0.6-0.3-0.6-0.8V6.3h-0.7v1.9c0,0.5,0.1,0.8,0.3,1.1
		c0.3,0.3,0.6,0.4,1,0.4c0.4,0,0.8-0.1,1-0.4c0.2-0.3,0.3-0.5,0.3-1.1V6.3h-0.7V8.2z"/>
	<path class="st0" d="M125.6,8.2c0,0.6-0.2,0.8-0.6,0.8c-0.4,0-0.6-0.3-0.6-0.8V6.3h-0.7v1.9c0,0.5,0.1,0.8,0.3,1.1
		c0.3,0.3,0.6,0.4,1,0.4c0.4,0,0.8-0.1,1-0.4c0.2-0.3,0.3-0.5,0.3-1.1V6.3h-0.7V8.2z"/>
	<path class="st0" d="M170.2,6.7c-0.3-0.3-0.6-0.5-1-0.5c-0.9,0-1.5,0.7-1.5,1.7c0,1,0.6,1.8,1.5,1.8c0.4,0,0.7-0.1,1-0.4v0.3h0.7
		V4.1h-0.7V6.7z M169.4,9c-0.5,0-0.9-0.4-0.9-1.1c0-0.6,0.4-1,0.9-1c0.5,0,0.9,0.4,0.9,1C170.3,8.6,169.9,9,169.4,9z"/>
	<path class="st0" d="M175,6.7c-0.3-0.3-0.6-0.5-1-0.5c-0.9,0-1.5,0.7-1.5,1.7c0,1,0.6,1.8,1.5,1.8c0.4,0,0.6-0.1,1-0.4v0.3h0.7V6.3
		H175V6.7z M174.1,9c-0.5,0-0.9-0.4-0.9-1.1c0-0.6,0.4-1,0.9-1c0.5,0,0.9,0.4,0.9,1C175,8.6,174.7,9,174.1,9z"/>
	<path class="st0" d="M143,6.7c-0.3-0.3-0.6-0.5-1-0.5c-0.9,0-1.5,0.7-1.5,1.7c0,1,0.6,1.8,1.5,1.8c0.4,0,0.6-0.1,1-0.4v0.3h0.7V6.3
		H143V6.7z M142.1,9c-0.5,0-0.9-0.4-0.9-1.1c0-0.6,0.4-1,0.9-1c0.5,0,0.9,0.4,0.9,1C143.1,8.6,142.7,9,142.1,9z"/>
	<path class="st0" d="M180.6,4.5c-0.3,0-0.5,0.2-0.5,0.5c0,0.3,0.2,0.5,0.5,0.5c0.3,0,0.5-0.2,0.5-0.5
		C181.1,4.7,180.9,4.5,180.6,4.5z"/>
	<rect x="180.3" y="6.3" class="st0" width="0.7" height="3.3"/>
	<path class="st0" d="M113.6,4.5c-0.3,0-0.5,0.2-0.5,0.5c0,0.3,0.2,0.5,0.5,0.5c0.3,0,0.5-0.2,0.5-0.5
		C114.1,4.7,113.9,4.5,113.6,4.5z"/>
	<rect x="113.3" y="6.3" class="st0" width="0.7" height="3.3"/>
	<path class="st0" d="M184.2,6.2c-1,0-1.7,0.8-1.7,1.7c0,1,0.8,1.7,1.7,1.7c1,0,1.7-0.8,1.7-1.7C185.9,7,185.1,6.2,184.2,6.2z
		 M184.1,9c-0.6,0-1-0.4-1-1c0-0.6,0.4-1.1,1-1.1c0.6,0,1,0.4,1,1.1C185.1,8.6,184.7,9,184.1,9z"/>
	<path class="st0" d="M155.8,6.2c-1,0-1.7,0.8-1.7,1.7c0,1,0.8,1.7,1.7,1.7c1,0,1.7-0.8,1.7-1.7C157.5,7,156.8,6.2,155.8,6.2z
		 M155.8,9c-0.6,0-1-0.4-1-1c0-0.6,0.4-1.1,1-1.1c0.6,0,1,0.4,1,1.1C156.8,8.6,156.4,9,155.8,9z"/>
	<path class="st0" d="M94.5,6.2c-1,0-1.7,0.8-1.7,1.7c0,1,0.8,1.7,1.7,1.7c1,0,1.7-0.8,1.7-1.7C96.2,7,95.4,6.2,94.5,6.2z M94.5,9
		c-0.6,0-1-0.4-1-1c0-0.6,0.4-1.1,1-1.1c0.6,0,1,0.4,1,1.1C95.4,8.6,95,9,94.5,9z"/>
	<path class="st0" d="M188.9,6.2c-0.3,0-0.6,0.1-0.9,0.4V6.3h-0.7v3.3h0.7V8c0-0.8,0.2-1.1,0.7-1.1c0.5,0,0.6,0.2,0.6,0.9v1.8h0.7
		v-2C190.1,6.7,189.7,6.2,188.9,6.2z"/>
	<path class="st0" d="M99.2,6.2c-0.3,0-0.6,0.1-0.9,0.4V6.3h-0.7v3.3h0.7V8c0-0.8,0.2-1.1,0.7-1.1c0.5,0,0.6,0.2,0.6,0.9v1.8h0.7v-2
		C100.4,6.7,100,6.2,99.2,6.2z"/>
	<path class="st0" d="M165,6.2c-0.4,0-0.6,0.1-0.9,0.4V6.3h-0.7v3.3h0.7V8c0-0.8,0.2-1.1,0.7-1.1c0.5,0,0.6,0.2,0.6,0.9v1.8h0.7v-2
		C166.2,6.7,165.8,6.2,165,6.2z"/>
</g>
<g>
	<polygon class="st0" points="16.7,24 19.8,24 19.8,13.8 16.7,13.8 16.7,15 13.9,15 13.9,17.7 16.7,17.7 16.7,19.5 13.9,19.5 
		13.9,22.2 16.7,22.2 	"/>
	<polygon class="st0" points="22.4,16.6 28,16.6 28,23.8 31.1,23.8 31.1,13.9 22.4,13.9 	"/>
	<rect x="35.2" y="13.8" class="st0" width="3.1" height="10.3"/>
	<polygon class="st0" points="12.1,23.8 12.1,13.9 3.4,13.9 3.4,16.6 9,16.6 9,23.8 	"/>
	<polygon class="st0" points="115.2,25.4 112.2,25.4 112.2,33.3 121.7,33.3 121.7,30.5 115.2,30.5 	"/>
	<polygon class="st0" points="47.8,25.4 44.8,25.4 44.8,33.3 54.9,33.3 54.9,30.5 47.8,30.5 	"/>
	<polygon class="st0" points="41.4,21 48.6,21 48.6,24.7 51.7,24.7 51.7,21 57.8,21 57.8,18.2 41.4,18.2 	"/>
	<path class="st0" d="M54.6,6.7H44.6v8.9h10.1V6.7z M51.7,12.9h-4.1V9.5h4.1V12.9z"/>
	<polygon class="st0" points="77.8,13.8 74.8,13.8 74.8,24 77.8,24 77.8,19.9 80.9,19.9 80.9,17.2 77.8,17.2 	"/>
	<polygon class="st0" points="121.5,17.2 121.5,13.8 118.4,13.8 118.4,24 121.5,24 121.5,19.9 124.6,19.9 124.6,17.2 	"/>
	<polygon class="st0" points="100.1,17.1 97.9,17.1 97.9,13.8 95,13.8 95,24 97.9,24 97.9,19.9 100.1,19.9 100.1,24 103,24 
		103,13.8 100.1,13.8 	"/>
	<polygon class="st0" points="92.7,16.7 92.7,14 83.5,14 83.5,16.7 86.2,16.7 82.8,22.5 85.3,24 88.1,19.1 90.9,24 93.5,22.5 
		90,16.7 	"/>
	<polygon class="st0" points="115.9,20.8 110.2,20.8 110.2,16.8 115.7,16.8 115.7,14 107.1,14 107.1,23.5 115.9,23.5 	"/>
	<path class="st0" d="M68.6,16.4c1.8-0.6,3.1-2.2,3.1-4.1c0-0.8-0.2-1.6-0.7-2.2h1.8V7.4h-4.2V5h-3.1v2.3h-4.2v2.7h1.8
		c-0.4,0.6-0.7,1.4-0.7,2.2c0,1.9,1.3,3.5,3.1,4.1v1.7h-4.5V21h12v-2.8h-4.5V16.4z M67.1,10.6c1,0,1.7,0.8,1.7,1.7
		c0,1-0.8,1.7-1.7,1.7c-1,0-1.7-0.8-1.7-1.7C65.3,11.3,66.1,10.6,67.1,10.6z"/>
	<path class="st0" d="M15.2,25.1c-2.7,0-5,2.2-5,4.9c0,2.7,2.2,4.9,5,4.9s5-2.2,5-4.9C20.1,27.3,17.9,25.1,15.2,25.1z M15.2,32.1
		c-1.1,0-2.1-1-2.1-2.2c0-1.2,0.9-2.2,2.1-2.2c1.1,0,2.1,1,2.1,2.2C17.2,31.1,16.3,32.1,15.2,32.1z"/>
</g>
</svg>
