<?xml version="1.0" encoding="utf-8"?>
<!-- Generator: Adobe Illustrator 21.0.2, SVG Export Plug-In . SVG Version: 6.00 Build 0)  -->
<svg version="1.1" id="Layer_1" xmlns="http://www.w3.org/2000/svg" xmlns:xlink="http://www.w3.org/1999/xlink" x="0px" y="0px"
	 viewBox="0 0 124 37" style="enable-background:new 0 0 124 37;" xml:space="preserve">
<style type="text/css">
	.st0{fill:#FFFFFF;}
</style>
<polygon class="st0" points="16.5,21.3 19.5,21.3 19.5,11.1 16.5,11.1 16.5,12.3 13.7,12.3 13.7,15 16.5,15 16.5,16.8 13.7,16.8 
	13.7,19.5 16.5,19.5 "/>
<polygon class="st0" points="22.2,13.9 27.8,13.9 27.8,21.1 30.8,21.1 30.8,11.1 22.2,11.1 "/>
<rect x="34.9" y="11.1" class="st0" width="3.1" height="10.3"/>
<polygon class="st0" points="11.8,21.1 11.8,11.1 3.1,11.1 3.1,13.9 8.7,13.9 8.7,21.1 "/>
<polygon class="st0" points="47.5,22.7 44.5,22.7 44.5,30.6 54.6,30.6 54.6,27.8 47.5,27.8 "/>
<polygon class="st0" points="41.1,18.3 48.3,18.3 48.3,22 51.4,22 51.4,18.3 57.5,18.3 57.5,15.5 41.1,15.5 "/>
<path class="st0" d="M54.3,4H44.3v8.9h10.1V4z M51.4,10.2h-4.1V6.8h4.1V10.2z"/>
<polygon class="st0" points="77.6,11.1 74.5,11.1 74.5,21.3 77.6,21.3 77.6,17.2 80.6,17.2 80.6,14.5 77.6,14.5 "/>
<path class="st0" d="M68.3,13.7c1.8-0.6,3.1-2.2,3.1-4.1c0-0.8-0.2-1.6-0.7-2.2h1.8V4.6h-4.2V2.3h-3.1v2.3H61v2.7h1.8
	c-0.4,0.6-0.7,1.4-0.7,2.2c0,1.9,1.3,3.5,3.1,4.1v1.7h-4.5v2.8h12v-2.8h-4.5V13.7z M66.8,7.9c1,0,1.7,0.8,1.7,1.7
	c0,1-0.8,1.7-1.7,1.7c-1,0-1.7-0.8-1.7-1.7C65,8.6,65.8,7.9,66.8,7.9z"/>
<path class="st0" d="M14.9,22.4c-2.7,0-5,2.2-5,4.9c0,2.7,2.2,4.9,5,4.9s5-2.2,5-4.9C19.8,24.5,17.6,22.4,14.9,22.4z M14.9,29.4
	c-1.1,0-2.1-1-2.1-2.2c0-1.2,0.9-2.2,2.1-2.2s2.1,1,2.1,2.2C16.9,28.4,16,29.4,14.9,29.4z"/>
<g>
	<path class="st0" d="M92.8,23.8v-1.7h5.8v-2.6h-2.5v-3.3h2.5v-2.6H84.2v2.6h2.3v3.3h-2.3v2.6H90v1.7h-6.7v2.5h16.4v-2.5H92.8z
		 M89.5,16.1h3.7v3.3h-3.7V16.1z"/>
	<polygon class="st0" points="104.7,20.8 104.7,19.1 109.9,19.1 109.9,17.7 104.7,17.7 104.7,16.1 110.8,16.1 110.8,13.6 
		104.7,13.6 101.8,13.6 101.8,16.1 101.8,23.4 103.2,23.4 104.7,23.4 111.5,23.4 111.5,20.8 	"/>
	<polygon class="st0" points="115.9,13.7 115.9,16.6 113.1,16.6 113.1,18.7 115.9,18.7 115.9,22.8 118.8,22.8 118.8,13.7 	"/>
	<rect x="109.6" y="27.7" class="st0" width="3" height="5.9"/>
	<g>
		<polygon class="st0" points="109.6,24.3 109.6,27.1 115.9,27.1 115.9,27.7 109.6,27.7 109.6,30.6 115.9,30.6 118.8,30.6 
			118.8,27.7 118.8,27.1 118.8,26.2 118.8,24.3 		"/>
		<rect x="109.6" y="31.2" class="st0" width="9.2" height="2.4"/>
	</g>
</g>
</svg>
